<svg width="90" height="89" viewBox="0 0 90 89" fill="none" xmlns="http://www.w3.org/2000/svg">
<path d="M4.47266 0.132812V-4.86719H-2.94835L-0.16134 2.0106L4.47266 0.132812ZM15.8862 0.132812L20.5256 -1.73155L19.2656 -4.86719H15.8862V0.132812ZM45 72.5815L40.3606 74.4459L45.0049 86.0031L49.6408 74.4425L45 72.5815ZM74.0527 0.132812V-4.86719H70.6707L69.412 -1.72818L74.0527 0.132812ZM85.5273 0.132812L90.1591 2.01606L92.9578 -4.86719H85.5273V0.132812ZM49.3945 89V94H52.7591L54.0263 90.8833L49.3945 89ZM40.4834 89L35.8494 90.8778L37.1146 94H40.4834V89ZM0.749512 0.132812V-4.86719H-4.25049V0.132812H0.749512ZM10.8203 0.132812L15.818 -0.0191443L15.6706 -4.86719H10.8203V0.132812ZM12.4683 54.332H17.4683V54.256L17.466 54.1801L12.4683 54.332ZM12.4683 89V94H17.4683V89H12.4683ZM0.749512 89H-4.25049V94H0.749512V89ZM79.1187 0.132812V-4.86719H74.2684L74.121 -0.0191443L79.1187 0.132812ZM89.1895 0.132812H94.1895V-4.86719H89.1895V0.132812ZM89.1895 89V94H94.1895V89H89.1895ZM77.4707 89H72.4707V94H77.4707V89ZM77.4707 54.332L72.473 54.1801L72.4707 54.256V54.332H77.4707ZM4.47266 5.13281H15.8862V-4.86719H4.47266V5.13281ZM11.2468 1.99718L40.3606 74.4459L49.6394 70.7172L20.5256 -1.73155L11.2468 1.99718ZM49.6408 74.4425L78.6935 1.99381L69.412 -1.72818L40.3592 70.7205L49.6408 74.4425ZM74.0527 5.13281H85.5273V-4.86719H74.0527V5.13281ZM80.8956 -1.75044L44.7628 87.1167L54.0263 90.8833L90.1591 2.01606L80.8956 -1.75044ZM49.3945 84H40.4834V94H49.3945V84ZM45.1174 87.1222L9.10665 -1.74497L-0.16134 2.0106L35.8494 90.8778L45.1174 87.1222ZM0.749512 5.13281H10.8203V-4.86719H0.749512V5.13281ZM5.82262 0.284769L7.47057 54.484L17.466 54.1801L15.818 -0.0191443L5.82262 0.284769ZM7.46826 54.332V89H17.4683V54.332H7.46826ZM12.4683 84H0.749512V94H12.4683V84ZM5.74951 89V0.132812H-4.25049V89H5.74951ZM79.1187 5.13281H89.1895V-4.86719H79.1187V5.13281ZM84.1895 0.132812V89H94.1895V0.132812H84.1895ZM89.1895 84H77.4707V94H89.1895V84ZM82.4707 89V54.332H72.4707V89H82.4707ZM82.4684 54.484L84.1163 0.284769L74.121 -0.0191443L72.473 54.1801L82.4684 54.484Z" fill="white"/>
</svg>
